# Blender 5.2.1 LTS
# www.blender.org
mtllib bwearlowpoly.mtl
o Bewear
v 14.259877 6.654096 15.768167
v 7.003644 7.039631 1.094747
v 42.743500 5.530711 -15.350777
v 31.732916 9.665622 -21.616266
v 15.950515 13.276956 -18.209843
v 9.280105 3.041527 -9.969332
v 46.913662 6.226520 6.025395
v 40.095356 39.700706 -17.288754
v 13.954736 48.927574 -14.483740
v 27.683258 56.688820 20.959570
v 36.967617 8.966197 18.449711
v 47.624271 6.867951 -6.047365
v 24.361795 53.248379 -21.774223
v 33.725449 167.838806 30.026697
v 34.820877 187.467773 21.917595
v 10.553146 193.305511 35.107586
v 17.897522 200.997345 21.594978
v 1.907993 210.007629 3.847857
v 28.626392 201.158279 -1.176820
v 23.852678 199.965439 -20.293644
v 42.833374 186.077988 -4.258066
v 35.889503 188.002579 -22.880753
v 20.341820 190.425354 -33.754398
v 46.179031 171.936996 -12.674173
v 13.457532 208.985535 2.366854
v 46.944065 169.534973 3.353017
v 5.148791 178.108902 -42.533489
v 45.944969 131.264908 12.704168
v 39.713425 160.626572 -26.976236
v 47.430943 137.856339 2.333097
v 41.521599 129.378677 -22.531366
v 30.067225 163.725998 -36.505295
v 9.138810 156.817078 -44.621326
v 42.532715 162.528168 18.492975
v 42.493942 103.142044 23.833202
v 46.603630 120.567589 14.916778
v 29.992254 113.363838 -33.894543
v 12.799010 108.819466 -40.294697
v 8.059210 84.154770 -41.587643
v 12.677381 76.600136 -40.441807
v 11.047750 67.022507 -37.454342
v 0.003863 61.460613 -34.788460
v 32.338432 81.808228 -34.455303
v 38.596725 65.030022 -20.828941
v 46.946793 72.793655 -10.843141
v 48.632332 72.819786 0.030504
v 40.684093 64.743378 16.384445
v 24.369349 63.333694 30.690897
v 10.622140 100.266449 46.340828
v 11.750424 74.816315 41.550861
v 16.643076 50.497318 17.732416
v 9.428488 47.670738 7.215536
v 3.921317 159.575134 44.575047
v 29.826351 98.768448 38.683407
v 30.432644 77.957733 35.000256
v 18.558136 8.815187 18.272896
v 42.782047 0.970856 13.580705
v 31.123852 2.761149 19.586651
v 108.497810 143.088379 -5.231487
v 120.857483 127.515137 -12.039200
v 106.310127 134.042099 -18.677156
v 78.597588 144.006561 -3.737273
v 46.854130 135.006180 -9.105599
v 83.731407 135.361938 -18.742495
v 77.602051 142.274811 7.886525
v 107.828506 141.790451 8.874183
v 120.888069 135.896133 3.470140
v 117.781677 123.688583 16.145365
v 106.304611 134.042465 18.678352
v 107.625801 117.954994 21.886269
v 83.854263 135.526428 18.634544
v 90.346664 118.649139 23.127106
v 54.520363 214.748734 14.498315
v 57.290142 207.321487 12.865944
v 56.807171 205.152878 16.795788
v 48.587357 210.298203 19.263762
v 43.307762 207.165695 10.343599
v 39.607391 212.776306 16.882017
v 52.814445 188.672180 17.965233
v 54.848904 188.186905 12.718074
v 29.970068 196.487183 11.093589
v 25.074144 199.487152 15.233897
v 25.956306 196.699509 19.573755
v 42.831928 184.029572 9.035042
v 43.469627 173.511307 12.575325
v 44.162285 173.863205 16.933584
v -9.887164 209.349197 -3.060142
v -23.852676 199.965439 -20.293640
v 0.000000 202.771118 -27.360632
v -28.626394 201.158279 -1.176824
v -26.890003 184.243286 -33.726242
v -46.179016 171.937027 -12.674195
v -35.889511 188.002579 -22.880741
v -7.757322 188.972549 -38.468227
v -17.897512 200.997345 21.594969
v 0.731919 203.772064 24.304008
v -14.098569 191.808334 34.810871
v -33.725460 167.838715 30.026699
v -22.234554 171.734467 36.672421
v -34.820881 187.467773 21.917595
v -45.017311 160.304291 13.087021
v -8.322865 99.401009 46.828030
v -11.392586 73.125740 40.954330
v -0.000439 56.364624 30.293072
v -8.109529 47.146427 -5.146710
v -24.369703 63.333836 30.690790
v -30.432600 77.957748 35.000290
v -28.608498 76.899422 -35.997257
v -21.966902 60.898205 -31.679710
v -2.448214 52.105503 -23.479040
v 8.105256 47.152279 -5.159022
v -12.029908 79.834969 -41.145504
v -38.596779 65.030006 -20.828934
v -46.946869 72.793053 -10.843134
v -8.911052 107.999001 -41.108410
v -29.992357 113.362991 -33.894505
v -39.713322 160.626236 -26.976418
v -30.085554 153.220139 -36.309044
v -14.728118 159.223709 -43.012280
v -47.430946 137.856339 2.333081
v -46.944065 169.534973 3.353019
v -42.833370 186.078003 -4.258052
v -4.427761 153.309525 36.681858
v 11.435432 153.591309 34.812366
v -4.969933 160.079865 44.020054
v 23.172583 164.246048 24.121777
v 18.187193 155.009415 24.026413
v 15.923535 160.351242 10.911692
v 1.855017 162.981949 5.006442
v 8.597506 158.819931 8.021150
v 19.765070 168.422943 15.948561
v 9.910409 174.415390 19.514275
v 17.116526 169.329407 27.541859
v 20.472258 162.065704 33.747173
v -18.632996 163.416809 32.915253
v 4.194481 170.487808 7.489666
v -16.015921 170.278900 27.076653
v -23.038998 160.412491 38.095669
v -15.457473 172.835632 19.889196
v -16.671185 167.580521 11.605445
v -23.172571 164.245789 24.121941
v -12.886879 158.549484 9.548516
v -20.968174 156.485260 31.610416
v -16.704861 155.255508 24.692799
v 7.355443 158.991272 28.581194
v 9.728211 160.751770 15.085518
v -9.100788 157.996811 29.092916
v -6.659322 162.101700 16.769287
v 1.688194 209.928177 -1.687270
v 2.708462 217.023682 -0.551265
v 2.334234 209.932571 2.025157
v 18.559849 0.116489 -15.035966
v 13.834888 0.157063 12.437346
v 40.899921 0.655592 -14.475365
v 16.715149 3.137225 17.827208
v 23.342600 4.778077 19.327969
v 39.908012 3.910342 18.013988
v 24.960026 64.470123 -32.994598
v 110.666145 107.841339 -13.497211
v 111.735443 104.986351 0.001947
v 113.707817 117.387169 -19.960934
v 100.219109 106.581230 -15.392211
v 77.582680 103.815109 0.004676
v 90.283195 118.703285 -23.124941
v 46.043182 123.049065 -15.678548
v 48.233109 109.221039 -6.567473
v 108.282867 106.182228 12.488665
v 119.621506 114.071793 11.822594
v 74.113098 107.393654 12.020137
v 47.582142 111.639854 9.409930
v 28.819649 11.785609 20.857971
v 26.565662 5.045449 23.525881
v -2.287088 220.244217 -0.507773
v 0.241689 221.846817 0.918779
v 9.887181 209.349197 -3.060136
v 8.879607 218.310043 -0.897033
v 16.645002 214.086868 1.993394
v 11.504913 217.250259 3.803931
v 18.393171 220.627594 -0.642411
v -29.826344 98.768471 38.683414
v 125.169853 124.148407 2.945239
v 122.324715 112.514046 -2.651491
v -18.558170 8.815313 18.272900
v -7.003665 7.039725 1.094743
v -9.430558 47.702568 7.242689
v -28.819679 11.785707 20.857973
v -46.913662 6.226619 6.025455
v -47.624294 6.868086 -6.047348
v -39.424538 9.012906 -18.718163
v -27.670877 9.482242 -21.574940
v -15.950540 13.277092 -18.209845
v -8.338127 6.542958 -8.555015
v -42.782097 0.970965 13.580704
v -40.095379 39.700825 -17.288744
v -27.814655 54.625961 -21.631535
v -17.533520 50.015820 -18.325565
v -48.632381 72.818718 0.030530
v -40.684189 64.743431 16.384401
v -27.683306 56.688965 20.959574
v -16.598070 50.388309 17.688444
v -44.162281 173.863190 16.933588
v -43.469627 173.511307 12.575328
v -42.831924 184.029587 9.035041
v -29.970079 196.487183 11.093584
v -25.074144 199.487152 15.233894
v -43.307705 207.165634 10.343598
v -52.814423 188.672104 17.965239
v -25.956312 196.699509 19.573757
v -42.532715 162.528168 18.492977
v -52.719124 168.120377 13.112210
v -56.058399 161.764679 15.235715
v -49.881828 159.240280 17.114368
v -52.716412 167.041641 17.874054
v -46.043167 123.049042 -15.678545
v -38.293743 82.983017 -28.352894
v -42.493908 103.142036 23.833267
v -41.521572 129.378632 -22.531416
v -45.944969 131.264908 12.704165
v -23.342621 4.778173 19.327969
v -36.967648 8.966330 18.449715
v -120.889214 135.897018 -3.462328
v -108.497765 143.088333 -5.231487
v -120.651169 123.342850 -13.671666
v -106.310120 134.042068 -18.677147
v -78.597557 144.006531 -3.737288
v -107.627022 117.954460 -21.885878
v -83.731346 135.361908 -18.742495
v -90.283165 118.703262 -23.124941
v -46.854134 135.006165 -9.105600
v -77.601982 142.274780 7.886521
v -107.828468 141.790405 8.874173
v -111.761383 132.445206 18.039658
v -83.854164 135.526398 18.634541
v -46.603630 120.567581 14.916777
v -56.807182 205.152832 16.795795
v -57.290157 207.321472 12.865953
v -48.587372 210.298203 19.263763
v -39.607334 212.776230 16.882027
v -54.520348 214.748718 14.498321
v -54.848892 188.186859 12.718075
v 56.058395 161.764679 15.235713
v 52.719143 168.120361 13.112215
v 52.716419 167.041626 17.874054
v 45.017227 160.304260 13.087025
v 49.881832 159.240280 17.114363
v -34.202179 -0.031618 -15.271356
v -13.713543 0.997284 -13.277486
v -43.954422 1.709773 -11.148232
v -13.834914 0.157165 12.437355
v -39.133854 2.072408 16.327656
v -111.735512 104.986359 0.001954
v -113.646011 109.885551 -14.922565
v -122.760536 111.965942 0.005227
v -100.219063 106.581200 -15.392210
v -48.233109 109.221039 -6.567480
v -77.583099 103.815063 0.004678
v -108.282814 106.182198 12.488689
v -113.707115 117.389580 19.961720
v -90.346649 118.649117 23.127108
v -74.113548 107.393623 12.020188
v -47.582146 111.639816 9.409906
v -31.123877 2.761251 19.586655
v -26.565687 5.045546 23.525883
v -18.393162 220.627594 -0.642416
v -8.879624 218.310043 -0.897041
v -2.571659 210.138535 0.775773
v -13.491149 208.936371 2.243211
v -11.504939 217.250290 3.803930
v -7.824704 209.733353 4.476995
v -16.645002 214.086868 1.993392
v -16.715185 3.137328 17.827198
v -14.259893 6.654234 15.768174
v -39.807716 4.879339 18.509439
v -125.169815 124.148354 2.945254
v -3.207209 181.326447 41.572605
v 13.691843 54.272678 -63.078178
v -1.068885 86.868896 -42.004787
v 19.261723 63.911629 -66.287140
v 7.358626 47.738564 -90.969460
v 3.004225 45.910091 -72.187370
v 3.522724 56.159767 -101.872284
v 3.983649 71.686302 -101.732384
v -0.000007 83.256447 -86.569214
v 9.786804 76.854240 -92.966370
v 14.707622 56.974659 -93.569176
v 16.865837 65.336685 -92.488838
v 16.701143 77.499313 -72.577408
v 7.747860 84.824165 -72.796890
v -19.261591 63.911152 -66.287094
v -10.726913 66.481544 -37.204292
v -7.747853 84.824173 -72.796875
v -16.701397 77.499130 -72.576576
v -17.743568 65.758713 -89.493889
v -12.912445 56.171692 -96.628166
v -9.552122 48.951267 -89.954445
v -9.461767 72.764160 -98.747902
v -10.982143 50.539024 -67.765503
v 13.221144 167.781021 55.366253
v 23.038837 160.412476 38.095734
v 23.708941 163.302124 44.527809
v 19.511005 176.267410 37.620567
v 7.423910 173.378784 55.432571
v 16.160530 176.149216 46.111210
v -16.160536 176.149216 46.111206
v -6.915437 172.601730 56.723465
v -0.000000 177.704056 52.871513
v -23.708941 163.302124 44.527809
v -0.252951 161.266708 57.587578
v -13.845883 168.241455 54.744625
v -10.804639 154.426666 50.814129
v 7.625335 155.808258 54.032364
v 2.474021 150.899414 47.342758
v 20.856709 157.782410 40.040134
v -0.021839 151.006393 37.018333
v 12.885861 157.359589 32.799301
v -17.099829 157.807541 33.572796
v 4.541989 174.350372 58.309246
v -2.659330 176.754105 56.698193
v 0.000004 166.834930 57.906197
vn -0.9596 -0.2539 0.1211
vn -0.7620 -0.0562 0.6451
vn -0.6097 -0.7028 0.3665
vn -0.2239 -0.5438 0.8088
vn -0.3624 0.0048 0.9320
vn 0.0439 0.0403 0.9982
vn 0.3040 -0.3965 0.8663
vn 0.4398 0.0177 0.8979
vn -0.2531 -0.7892 -0.5595
vn -0.5218 -0.0987 -0.8473
vn 0.1161 -0.2366 -0.9646
vn -0.7621 -0.5311 -0.3705
vn 0.7074 -0.1962 -0.6790
vn 0.5732 -0.0175 -0.8192
vn 0.9314 -0.3149 -0.1828
vn 0.9928 -0.0299 0.1162
vn 0.9412 -0.2672 0.2069
vn 0.1029 -0.4379 -0.8931
vn -0.4448 -0.5960 -0.6686
vn -0.6390 -0.7299 -0.2425
vn 0.9259 -0.0400 -0.3756
vn 0.6816 -0.2144 -0.6996
vn 0.5817 -0.6816 0.4439
vn 0.7856 -0.1463 0.6012
vn 0.3682 0.2095 0.9058
vn 0.1857 0.6341 0.7506
vn 0.3753 0.8059 0.4578
vn 0.0647 0.9856 0.1564
vn 0.7745 0.1054 0.6238
vn 0.6682 0.1388 0.7309
vn 0.6181 -0.1194 0.7770
vn 0.6067 0.4674 0.6430
vn 0.8599 -0.0801 0.5041
vn 0.2423 0.5584 0.7934
vn 0.0043 0.8622 0.5066
vn 0.6370 0.7041 0.3138
vn 0.0149 0.8745 0.4847
vn 0.5901 0.8074 -0.0004
vn 0.2849 0.6922 -0.6630
vn 0.4454 0.8056 -0.3907
vn -0.0101 0.8232 -0.5677
vn -0.0699 0.7868 -0.6132
vn 0.3661 0.5046 -0.7819
vn -0.1626 0.4891 -0.8570
vn 0.7211 0.4844 -0.4954
vn 0.8621 0.5014 -0.0737
vn 0.9490 0.1672 -0.2671
vn 0.5452 0.1029 -0.8319
vn 0.1015 0.2544 -0.9617
vn 0.7745 0.2158 -0.5946
vn 0.3475 0.7987 -0.4913
vn 0.9866 0.1192 0.1115
vn 0.9703 0.1024 -0.2194
vn 0.9342 -0.3566 -0.0091
vn 0.6925 0.7006 0.1719
vn 0.6269 0.5078 -0.5909
vn 0.8220 0.0130 -0.5693
vn 0.8058 0.0511 -0.5900
vn 0.6090 0.3357 0.7186
vn 0.1569 0.0229 -0.9874
vn 0.5230 0.0119 -0.8523
vn 0.8640 -0.0375 0.5021
vn 0.4214 -0.0109 0.9068
vn 0.5429 0.0118 -0.8397
vn 0.6656 -0.5381 0.5172
vn 0.7414 -0.5594 -0.3706
vn 0.5934 -0.1030 -0.7983
vn 0.2035 -0.0158 -0.9789
vn -0.1498 -0.0114 -0.9886
vn -0.0856 0.6168 -0.7825
vn 0.5074 0.5008 -0.7012
vn 0.8222 0.0667 -0.5652
vn 0.3851 -0.4940 -0.7795
vn 0.5915 -0.2502 0.7665
vn 0.3823 -0.5819 0.7178
vn 0.0031 -0.7409 0.6716
vn -0.1712 -0.3781 0.9098
vn 0.1763 -0.3555 0.9179
vn 0.1995 -0.0605 0.9780
vn -0.1636 -0.0722 0.9839
vn 0.2279 -0.5422 0.8087
vn 0.6084 -0.7056 0.3634
vn 0.1070 0.5907 0.7998
vn 0.5734 -0.0475 0.8179
vn -0.3045 -0.2291 0.9245
vn 0.6250 -0.2083 0.7523
vn 0.2344 -0.7437 0.6260
vn 0.7672 0.6235 0.1505
vn 0.8040 0.2682 -0.5307
vn 0.3106 0.9139 -0.2613
vn 0.2618 0.5344 -0.8036
vn 0.4817 -0.2313 -0.8453
vn -0.0746 0.5853 -0.8074
vn -0.0485 -0.2051 -0.9775
vn -0.0857 0.9768 -0.1964
vn -0.1051 0.9236 0.3687
vn 0.2732 0.8803 0.3878
vn 0.2671 0.5142 0.8150
vn 0.2645 -0.2273 0.9372
vn 0.6777 0.1324 0.7234
vn -0.0834 0.5622 0.8228
vn -0.0496 -0.2249 0.9731
vn 0.8607 -0.3179 -0.3977
vn 0.8269 0.1939 -0.5279
vn 0.7902 0.0470 0.6111
vn 0.1348 0.3725 0.9182
vn 0.6261 -0.2467 0.7396
vn 0.5024 0.8595 -0.0939
vn -0.1182 0.3717 -0.9208
vn -0.4250 0.8867 0.1823
vn -0.4345 0.7930 -0.4270
vn -0.2193 0.7366 -0.6398
vn -0.5897 0.8076 -0.0001
vn -0.7483 0.6128 0.2540
vn -0.4828 0.3823 -0.7879
vn -0.7269 0.4948 -0.4762
vn -0.8621 0.5014 -0.0737
vn -0.9490 0.1672 -0.2671
vn -0.7745 0.2158 -0.5946
vn -0.3644 0.8108 0.4581
vn 0.0046 0.7505 0.6608
vn -0.3189 0.5305 0.7854
vn -0.3709 0.2056 0.9056
vn -0.6637 0.1459 0.7336
vn -0.0907 0.7405 0.6659
vn -0.6931 0.3744 0.6160
vn -0.8020 -0.1777 0.5703
vn -0.6090 0.3357 0.7186
vn -0.6181 -0.1194 0.7770
vn -0.9342 -0.3566 -0.0091
vn -0.1476 0.8833 0.4449
vn 0.6253 -0.7335 -0.2664
vn -0.3864 -0.5825 0.7151
vn -0.3050 -0.3966 0.8658
vn -0.7856 -0.1463 0.6012
vn -0.5871 -0.2477 0.7707
vn -0.8640 -0.0375 0.5021
vn -0.9928 -0.0299 0.1162
vn -0.7610 -0.0843 -0.6433
vn -0.9326 -0.0513 -0.3573
vn -0.5536 0.0228 -0.8325
vn -0.6771 -0.2260 -0.7003
vn -0.4738 -0.1975 -0.8582
vn -0.3071 -0.5803 -0.7543
vn -0.0041 -0.8738 -0.4862
vn 0.2724 -0.5420 -0.7950
vn 0.0175 -0.9637 -0.2663
vn -0.7150 0.2151 -0.6652
vn -0.2250 -0.3801 -0.8972
vn -0.6208 -0.6430 -0.4486
vn -0.5219 -0.0004 -0.8530
vn -0.2491 0.0571 -0.9668
vn -0.5584 0.0101 -0.8295
vn -0.9866 0.1192 0.1115
vn -0.6925 0.7006 0.1719
vn -0.7947 0.0653 -0.6035
vn -0.0770 0.9804 -0.1815
vn 0.0162 0.9877 -0.1553
vn -0.3613 0.9076 0.2137
vn -0.9849 -0.1641 0.0544
vn -0.6169 0.3436 0.7080
vn -0.7622 -0.4907 0.4222
vn -0.3234 0.3505 0.8789
vn -0.1227 -0.6499 0.7500
vn -0.0143 0.1016 0.9947
vn -0.3794 -0.8027 -0.4602
vn -0.1964 -0.9800 -0.0318
vn 0.3374 -0.7983 -0.4989
vn -0.0163 -0.8181 -0.5748
vn 0.0904 -0.6709 -0.7360
vn 0.4169 -0.9062 0.0711
vn 0.6386 -0.3684 0.6756
vn 0.9828 -0.1537 0.1024
vn 0.3270 0.7040 0.6304
vn 0.6342 0.7719 -0.0441
vn 0.2009 0.9434 0.2639
vn 0.2242 0.9183 -0.3262
vn 0.4010 0.9075 -0.1252
vn -0.1880 0.9817 -0.0305
vn 0.1935 0.9016 0.3868
vn -0.3429 0.8025 0.4883
vn -0.7569 0.5845 -0.2924
vn 0.1358 0.9651 0.2239
vn 0.8761 0.3093 -0.3698
vn 0.2450 0.9535 0.1754
vn -0.5311 -0.7735 0.3459
vn 0.4212 -0.7757 -0.4699
vn -0.4195 -0.4257 0.8018
vn 0.6056 -0.6816 -0.4106
vn 0.3642 -0.7712 -0.5222
vn 0.3474 -0.9377 0.0037
vn 0.0776 -0.7946 -0.6021
vn 0.8387 -0.5262 -0.1405
vn -0.0979 -0.9952 -0.0077
vn 0.2433 -0.8430 0.4797
vn -0.1447 -0.8255 0.5456
vn 0.7334 -0.4674 0.4936
vn -0.2056 -0.2596 0.9436
vn -0.1321 0.9906 -0.0363
vn -0.4600 0.8005 -0.3843
vn 0.7250 0.6607 -0.1948
vn 0.8644 -0.3252 0.3836
vn -0.0855 0.4654 0.8810
vn -0.5666 -0.0481 0.8226
vn 0.9912 0.0610 0.1175
vn 0.9361 -0.3366 0.1023
vn 0.7620 -0.0562 0.6451
vn 0.3625 0.0050 0.9320
vn -0.0439 0.0403 0.9982
vn -0.4382 -0.0315 0.8983
vn -0.6473 -0.6612 -0.3792
vn -0.9478 -0.2470 -0.2016
vn -0.5311 -0.1948 -0.8246
vn 0.0419 -0.2640 -0.9636
vn 0.5506 -0.0814 -0.8308
vn 0.4851 -0.7232 -0.4916
vn 0.8934 -0.3147 -0.3208
vn -0.5960 -0.0167 -0.8028
vn -0.9412 -0.2672 0.2069
vn -0.6011 -0.6761 0.4261
vn 0.1182 0.3717 -0.9208
vn -0.3475 0.7987 -0.4913
vn -0.6261 -0.2467 0.7396
vn -0.7745 0.1054 0.6238
vn -0.1857 0.6341 0.7506
vn -0.1348 0.3725 0.9182
vn 0.4250 0.8867 0.1823
vn -0.0647 0.9856 0.1564
vn -0.8607 -0.3179 -0.3977
vn -0.9703 0.1024 -0.2194
vn -0.5712 0.3645 0.7354
vn -0.6360 0.4527 -0.6249
vn -0.1817 -0.8771 0.4446
vn -0.9090 -0.4096 -0.0770
vn -0.8230 0.0163 -0.5678
vn -0.7414 -0.5594 -0.3706
vn -0.6656 -0.5381 0.5172
vn -0.4214 -0.0109 0.9068
vn -0.6269 0.5078 -0.5909
vn 0.3045 -0.2291 0.9245
vn -0.3982 0.0287 0.9169
vn -0.2035 -0.6626 0.7208
vn -0.7764 0.6164 -0.1317
vn -0.2813 0.9274 -0.2467
vn -0.2679 0.5347 -0.8015
vn -0.2588 -0.2076 -0.9434
vn -0.7888 0.0623 -0.6115
vn 0.0746 0.5853 -0.8074
vn 0.0634 -0.2044 -0.9768
vn 0.0857 0.9768 -0.1964
vn -0.2996 0.8731 0.3846
vn 0.1051 0.9236 0.3687
vn -0.4534 0.4582 0.7645
vn 0.0728 0.5604 0.8250
vn -0.5107 -0.2422 0.8249
vn 0.0310 -0.2175 0.9756
vn -0.7902 0.0470 0.6111
vn -0.8269 0.1939 -0.5279
vn -0.5024 0.8595 -0.0939
vn 0.9090 -0.4096 -0.0770
vn 0.6360 0.4527 -0.6249
vn 0.5712 0.3645 0.7354
vn 0.1817 -0.8771 0.4446
vn 0.5407 -0.7713 0.3359
vn -0.1348 -0.8483 -0.5121
vn 0.4195 -0.4257 0.8018
vn -0.1292 -0.7395 0.6606
vn -0.0640 -0.8132 -0.5784
vn -0.3212 -0.9469 -0.0131
vn -0.4858 -0.6472 -0.5875
vn -0.8420 -0.5389 0.0249
vn 0.0979 -0.9952 -0.0077
vn -0.2571 -0.8361 0.4845
vn 0.1447 -0.8255 0.5456
vn 0.2056 -0.2596 0.9436
vn -0.7250 0.6607 -0.1948
vn 0.5195 0.7610 -0.3885
vn -0.8907 -0.2896 0.3504
vn 0.1034 0.5198 0.8480
vn -0.9754 0.0971 0.1977
vn 0.9829 -0.1653 0.0815
vn 0.6885 -0.6903 0.2225
vn 0.8576 0.5091 -0.0731
vn 0.3417 0.9325 -0.1173
vn 0.1428 -0.9786 0.1482
vn 0.3749 -0.8702 -0.3198
vn 0.8001 -0.3980 -0.4487
vn 0.1442 -0.3882 -0.9102
vn 0.8837 0.0939 -0.4586
vn 0.2048 0.3852 -0.8998
vn -0.0412 0.9256 -0.3763
vn 0.5404 0.6786 -0.4975
vn -0.9750 -0.1912 0.1134
vn -0.8460 0.5267 -0.0829
vn -0.5752 -0.7948 0.1937
vn -0.3519 0.9272 -0.1282
vn -0.9496 0.0614 -0.3074
vn -0.6628 -0.3969 -0.6350
vn -0.4942 -0.8236 -0.2784
vn -0.4898 0.4586 -0.7415
vn -0.0043 -0.0385 0.9992
vn 0.5318 0.0947 0.8415
vn 0.4426 0.5108 0.7370
vn -0.0508 -0.3124 0.9486
vn 0.3136 -0.6363 0.7049
vn 0.9279 -0.1152 0.3547
vn 0.5458 0.7410 0.3911
vn 0.0212 0.9413 0.3369
vn -0.5777 0.7590 0.3002
vn -0.3560 0.3862 0.8510
vn -0.5618 0.0929 0.8220
vn -0.9140 -0.1588 0.3733
vn -0.4056 -0.7572 0.5119
vn -0.3767 -0.6357 -0.6738
vn 0.5941 -0.8041 -0.0203
vn 0.0899 -0.9634 0.2524
vn -0.0280 -0.9045 -0.4256
vn 0.2335 -0.4795 -0.8459
vn -0.3921 0.7834 0.4822
vn 0.4427 0.3769 0.8136
vt 0.515180 0.018991
vt 0.543831 0.013846
vt 0.517992 0.172317
vt 0.547674 0.185399
vt 0.551713 0.018727
vt 0.573348 0.025832
vt 0.571365 0.206843
vt 0.592538 0.019874
vt 0.720985 0.007813
vt 0.730055 0.037022
vt 0.691936 0.021798
vt 0.745988 0.010211
vt 0.668285 0.014301
vt 0.678052 0.138777
vt 0.648627 0.012367
vt 0.626033 0.271003
vt 0.624318 0.009063
vt 0.713358 0.199078
vt 0.737396 0.178331
vt 0.765625 0.034162
vt 0.758470 0.168591
vt 0.504232 0.165662
vt 0.662787 0.282750
vt 0.684091 0.250591
vt 0.607301 0.014209
vt 0.595994 0.247616
vt 0.814098 0.783956
vt 0.816275 0.840949
vt 0.805296 0.874105
vt 0.822633 0.849469
vt 0.822878 0.724930
vt 0.794936 0.713230
vt 0.823192 0.689899
vt 0.769989 0.759300
vt 0.765598 0.673684
vt 0.770387 0.869896
vt 0.787427 0.936719
vt 0.850398 0.923774
vt 0.840508 0.982095
vt 0.857223 0.841220
vt 0.864716 0.938869
vt 0.897854 0.843293
vt 0.933806 0.911165
vt 0.865593 0.983312
vt 0.927325 0.810482
vt 0.966237 0.865707
vt 0.894414 0.778279
vt 0.860590 0.770781
vt 0.878323 0.717898
vt 0.927323 0.706950
vt 0.972142 0.784523
vt 0.836728 0.767662
vt 0.831852 0.828939
vt 0.848562 0.714603
vt 0.832829 0.728368
vt 0.828398 0.682491
vt 0.852712 0.601554
vt 0.872468 0.596350
vt 0.899366 0.576765
vt 0.904835 0.688911
vt 0.834765 0.576433
vt 0.972140 0.687077
vt 0.935638 0.522399
vt 0.810185 0.473885
vt 0.831146 0.535557
vt 0.883757 0.552042
vt 0.844116 0.364153
vt 0.840480 0.501900
vt 0.864880 0.494280
vt 0.896261 0.375279
vt 0.938685 0.409020
vt 0.971176 0.505121
vt 0.993660 0.506132
vt 0.993660 0.429582
vt 0.981973 0.418945
vt 0.974310 0.392377
vt 0.953182 0.349162
vt 0.927118 0.341468
vt 0.795647 0.335907
vt 0.770997 0.399501
vt 0.764761 0.317825
vt 0.758476 0.353455
vt 0.744438 0.302834
vt 0.730662 0.340967
vt 0.722357 0.385375
vt 0.740004 0.402286
vt 0.739989 0.479342
vt 0.722357 0.468756
vt 0.722357 0.305685
vt 0.733805 0.276000
vt 0.722357 0.278672
vt 0.732315 0.251582
vt 0.729825 0.663382
vt 0.772196 0.480217
vt 0.563782 0.012743
vt 0.598802 0.015105
vt 0.581357 0.007813
vt 0.659188 0.604226
vt 0.634342 0.614421
vt 0.646154 0.564105
vt 0.620694 0.557210
vt 0.609538 0.582473
vt 0.617692 0.479379
vt 0.597801 0.482786
vt 0.647009 0.461089
vt 0.634468 0.328263
vt 0.658806 0.328171
vt 0.610087 0.328333
vt 0.668435 0.455091
vt 0.666651 0.562277
vt 0.686074 0.557181
vt 0.703838 0.557360
vt 0.686071 0.603194
vt 0.689332 0.480997
vt 0.709535 0.482807
vt 0.684103 0.328241
vt 0.702823 0.328135
vt 0.704695 0.901258
vt 0.704711 0.964712
vt 0.699886 0.957970
vt 0.689285 0.971686
vt 0.696686 0.902669
vt 0.698059 0.992770
vt 0.725045 0.962217
vt 0.725823 0.988200
vt 0.704966 0.989372
vt 0.677191 0.982027
vt 0.725444 0.876889
vt 0.758282 0.945074
vt 0.647022 0.947184
vt 0.650191 0.934371
vt 0.669706 0.880477
vt 0.749550 0.926968
vt 0.710134 0.842828
vt 0.697506 0.842694
vt 0.102146 0.843293
vt 0.135284 0.938869
vt 0.074895 0.925132
vt 0.132203 0.990535
vt 0.142776 0.841220
vt 0.148712 0.923549
vt 0.078928 0.779470
vt 0.045787 0.830923
vt 0.105586 0.778279
vt 0.139410 0.770781
vt 0.121677 0.717898
vt 0.163272 0.767662
vt 0.194704 0.874105
vt 0.157395 0.953417
vt 0.212630 0.942582
vt 0.224795 0.849099
vt 0.185902 0.783956
vt 0.205064 0.713229
vt 0.245156 0.906442
vt 0.263242 0.850550
vt 0.233728 0.740719
vt 0.234402 0.673684
vt 0.165235 0.576433
vt 0.176808 0.689899
vt 0.171602 0.682491
vt 0.261741 0.662857
vt 0.263802 0.477879
vt 0.277643 0.663847
vt 0.259460 0.395885
vt 0.277643 0.412126
vt 0.266155 0.275991
vt 0.267693 0.251582
vt 0.277643 0.251366
vt 0.255738 0.303015
vt 0.272541 0.341561
vt 0.241524 0.353455
vt 0.235239 0.317825
vt 0.204352 0.335907
vt 0.229003 0.399501
vt 0.189815 0.473885
vt 0.155884 0.364151
vt 0.076440 0.403146
vt 0.103738 0.375277
vt 0.116243 0.552042
vt 0.072882 0.341468
vt 0.053253 0.391189
vt 0.041606 0.335395
vt 0.012983 0.292039
vt 0.037687 0.275329
vt 0.020357 0.220770
vt 0.006340 0.222501
vt 0.008989 0.340821
vt 0.023275 0.402697
vt 0.057859 0.309511
vt 0.023485 0.360805
vt 0.022162 0.505276
vt 0.009410 0.427940
vt 0.064362 0.522396
vt 0.039533 0.698666
vt 0.069622 0.670177
vt 0.006654 0.666027
vt 0.014971 0.784708
vt 0.151438 0.714603
vt 0.147288 0.601554
vt 0.095165 0.688910
vt 0.515933 0.222230
vt 0.489143 0.222056
vt 0.495999 0.196910
vt 0.553342 0.231411
vt 0.524075 0.243187
vt 0.551589 0.280726
vt 0.521891 0.275263
vt 0.532909 0.328439
vt 0.511389 0.258066
vt 0.505659 0.321252
vt 0.502410 0.283025
vt 0.552778 0.372055
vt 0.536030 0.382182
vt 0.518124 0.356913
vt 0.466664 0.382694
vt 0.546984 0.419688
vt 0.559191 0.432381
vt 0.453710 0.416619
vt 0.472105 0.351513
vt 0.472392 0.317372
vt 0.447222 0.372057
vt 0.440809 0.432381
vt 0.448411 0.280725
vt 0.482924 0.266498
vt 0.469923 0.233391
vt 0.477719 0.243291
vt 0.446657 0.231411
vt 0.532498 0.913045
vt 0.518191 0.979402
vt 0.520458 0.952196
vt 0.487230 0.946567
vt 0.514873 0.897614
vt 0.514271 0.867882
vt 0.489904 0.874358
vt 0.481789 0.894065
vt 0.477440 0.976319
vt 0.467502 0.913045
vt 0.850718 0.068843
vt 0.835878 0.087951
vt 0.840505 0.059925
vt 0.820602 0.008122
vt 0.830775 0.008730
vt 0.848846 0.008250
vt 0.930252 0.128461
vt 0.918020 0.055329
vt 0.936744 0.038026
vt 0.972525 0.047132
vt 0.959584 0.010516
vt 0.978753 0.034727
vt 0.909147 0.111849
vt 0.993029 0.061229
vt 0.979526 0.130055
vt 0.995272 0.112899
vt 0.928332 0.155617
vt 0.957325 0.171640
vt 0.943010 0.175952
vt 0.920166 0.159443
vt 0.981320 0.160186
vt 0.933049 0.176242
vt 0.971699 0.176331
vt 0.950428 0.297084
vt 0.985884 0.346472
vt 0.976016 0.362259
vt 0.990287 0.291067
vt 0.969848 0.263663
vt 0.978428 0.234258
vt 0.615564 0.922274
vt 0.593188 0.927557
vt 0.610541 0.878965
vt 0.598190 0.968688
vt 0.631913 0.931789
vt 0.641150 0.848403
vt 0.593188 0.802753
vt 0.602684 0.681704
vt 0.638190 0.677795
vt 0.574892 0.912802
vt 0.573168 0.791116
vt 0.549247 0.909646
vt 0.572415 0.956900
vt 0.557522 0.954823
vt 0.546577 0.848590
vt 0.572224 0.677810
vt 0.550048 0.677607
vt 0.566246 0.346200
vt 0.585263 0.337014
vt 0.575568 0.352697
vt 0.580152 0.382159
vt 0.162964 0.008541
vt 0.166705 0.088872
vt 0.157745 0.063530
vt 0.179398 0.008122
vt 0.145684 0.008219
vt 0.160370 0.992058
vt 0.157064 0.982121
vt 0.877521 0.034152
vt 0.894499 0.065594
vt 0.881984 0.099762
vt 0.870399 0.077859
vt 0.867188 0.044505
vt 0.898102 0.011310
vt 0.892578 0.015521
vt 0.792969 0.027011
vt 0.802320 0.075382
vt 0.788843 0.068112
vt 0.795283 0.101352
vt 0.778568 0.066733
vt 0.781751 0.014618
vt 0.806614 0.042788
vt 0.581518 0.295334
vt 0.572074 0.289729
vt 0.577639 0.270400
vt 0.227804 0.480217
vt 0.658723 0.636072
vt 0.606121 0.990544
vt 0.588531 0.992492
vt 0.706602 0.708549
vt 0.742486 0.719676
vt 0.704236 0.714992
vt 0.135487 0.979772
vt 0.484820 0.018991
vt 0.482008 0.172602
vt 0.456169 0.013846
vt 0.452512 0.185790
vt 0.448287 0.018727
vt 0.426652 0.025832
vt 0.428635 0.206844
vt 0.407462 0.019875
vt 0.331904 0.007813
vt 0.351373 0.012367
vt 0.322385 0.025840
vt 0.300445 0.022504
vt 0.269945 0.037023
vt 0.270499 0.007813
vt 0.242462 0.013434
vt 0.321948 0.138777
vt 0.375682 0.009063
vt 0.373967 0.270999
vt 0.295796 0.204322
vt 0.272070 0.187951
vt 0.241520 0.169137
vt 0.234375 0.034162
vt 0.495768 0.165662
vt 0.315909 0.250591
vt 0.337212 0.282747
vt 0.404006 0.247616
vt 0.392699 0.014209
vt 0.274955 0.962217
vt 0.250450 0.926968
vt 0.274556 0.876889
vt 0.330294 0.880477
vt 0.303314 0.902669
vt 0.302494 0.842694
vt 0.349810 0.934371
vt 0.310715 0.971686
vt 0.322810 0.982027
vt 0.352978 0.947184
vt 0.295305 0.901258
vt 0.289866 0.842828
vt 0.301424 0.805139
vt 0.321874 0.802422
vt 0.293006 0.811229
vt 0.273809 0.789137
vt 0.283354 0.773364
vt 0.296516 0.782798
vt 0.310108 0.778912
vt 0.323647 0.783614
vt 0.100634 0.576764
vt 0.135120 0.494280
vt 0.159520 0.501900
vt 0.168854 0.535557
vt 0.127532 0.596350
vt 0.167171 0.728368
vt 0.177122 0.724930
vt 0.183725 0.840949
vt 0.177367 0.849469
vt 0.168148 0.828939
vt 0.436218 0.012744
vt 0.401198 0.015105
vt 0.418643 0.007813
vt 0.351374 0.604228
vt 0.353846 0.564105
vt 0.379306 0.557210
vt 0.397747 0.557348
vt 0.372181 0.614814
vt 0.382308 0.479379
vt 0.402199 0.482786
vt 0.352991 0.461089
vt 0.365532 0.328263
vt 0.341194 0.328171
vt 0.389913 0.328333
vt 0.333349 0.562277
vt 0.331565 0.455091
vt 0.317512 0.575678
vt 0.310668 0.480996
vt 0.303343 0.582028
vt 0.290465 0.482807
vt 0.315897 0.328241
vt 0.297177 0.328135
vt 0.300114 0.957970
vt 0.295289 0.964712
vt 0.295034 0.989372
vt 0.274177 0.988200
vt 0.241718 0.945074
vt 0.703484 0.782798
vt 0.706994 0.811229
vt 0.698576 0.805139
vt 0.689892 0.778912
vt 0.716646 0.773364
vt 0.726191 0.789137
vt 0.678126 0.802422
vt 0.676353 0.783613
vt 0.069748 0.128461
vt 0.036421 0.038504
vt 0.072284 0.043587
vt 0.047987 0.008186
vt 0.031988 0.013108
vt 0.019197 0.049048
vt 0.088920 0.063017
vt 0.090853 0.111849
vt 0.020474 0.130055
vt 0.006971 0.061229
vt 0.004728 0.112899
vt 0.071668 0.155617
vt 0.042675 0.171640
vt 0.056989 0.175952
vt 0.079834 0.159443
vt 0.023915 0.155498
vt 0.016591 0.162056
vt 0.066951 0.176242
vt 0.028301 0.176331
vt 0.389459 0.878965
vt 0.406812 0.927558
vt 0.382568 0.933147
vt 0.406580 0.968163
vt 0.377806 0.967997
vt 0.360632 0.909639
vt 0.358850 0.848403
vt 0.406812 0.802754
vt 0.397316 0.681704
vt 0.361810 0.677795
vt 0.425108 0.912802
vt 0.426832 0.791117
vt 0.443652 0.931876
vt 0.453423 0.848590
vt 0.427776 0.677810
vt 0.449952 0.677607
vt 0.433754 0.346200
vt 0.424432 0.352698
vt 0.414737 0.337014
vt 0.419848 0.382159
vt 0.118017 0.099762
vt 0.105501 0.065594
vt 0.122479 0.034152
vt 0.129601 0.077859
vt 0.132813 0.044505
vt 0.104145 0.013023
vt 0.207031 0.027011
vt 0.211157 0.068112
vt 0.197680 0.075382
vt 0.221432 0.066733
vt 0.204717 0.101352
vt 0.218249 0.014618
vt 0.193386 0.042788
vt 0.422361 0.270400
vt 0.427926 0.289729
vt 0.418482 0.295335
vt 0.419624 0.408843
vt 0.425484 0.440484
vt 0.421582 0.423172
vt 0.341277 0.636072
vt 0.411469 0.992492
vt 0.346957 1.809138
vt 0.325767 1.922804
vt 0.266859 1.815276
vt 0.214455 1.813326
vt 0.166502 1.912310
vt 0.091243 1.781034
vt 0.838975 0.204954
vt 0.781273 0.230165
vt 0.781279 0.181732
vt 0.837567 0.166216
vt 0.781185 0.134203
vt 0.844600 0.255231
vt 0.781308 0.272525
vt 0.841023 0.296715
vt 0.781583 0.307876
vt 0.855651 0.118505
vt 0.889539 0.158987
vt 0.885817 0.204235
vt 0.910028 0.205598
vt 0.879793 0.230699
vt 0.902118 0.270326
vt 0.864105 0.327073
vt 0.877140 0.278718
vt 0.218765 0.178966
vt 0.218704 0.245855
vt 0.161024 0.204953
vt 0.155401 0.255229
vt 0.152184 0.152659
vt 0.218814 0.137133
vt 0.146890 0.109835
vt 0.158977 0.296715
vt 0.218415 0.298891
vt 0.135895 0.327073
vt 0.123941 0.228258
vt 0.108405 0.205373
vt 0.114770 0.166533
vt 0.082969 0.203644
vt 0.098375 0.140705
vt 0.110892 0.263495
vt 0.092667 0.283028
vt 0.502794 0.588905
vt 0.523101 0.585362
vt 0.512022 0.604545
vt 0.498851 0.567852
vt 0.512721 0.552052
vt 0.546149 0.574114
vt 0.561453 0.540158
vt 0.555540 0.633604
vt 0.537754 0.622744
vt 0.485711 0.675352
vt 0.499966 0.617952
vt 0.462246 0.622744
vt 0.487907 0.602215
vt 0.431766 0.609414
vt 0.475684 0.586406
vt 0.453851 0.574113
vt 0.481950 0.544891
vt 0.438547 0.540158
vt 0.461214 0.503035
vt 0.540227 0.523599
vt 0.504366 0.531223
vt 0.499267 0.509436
vt 0.524840 0.491137
vt 0.446358 0.490527
vt 0.548471 0.490074
vt 0.493864 0.740479
vt 0.508937 0.729821
vt 0.499943 0.757554
vt 0.517809 0.731834
vt 0.500485 0.701953
vt 0.484242 0.727763
s 1
usemtl Body
f 2/1/1 1/2/2 52/3/3
f 52/3/3 1/2/2 51/4/4
f 1/2/2 56/5/5 51/4/4
f 56/5/5 171/6/6 10/7/7
f 171/6/6 11/8/8 10/7/7
f 152/9/9 5/10/10 4/11/11
f 6/12/12 5/10/10 152/9/9
f 3/13/13 4/11/11 8/14/14
f 3/13/13 8/14/14 12/15/15
f 12/15/15 46/16/16 7/17/17
f 4/11/11 13/18/18 8/14/14
f 4/11/11 5/10/10 13/18/18
f 5/10/10 6/12/12 9/19/19
f 6/12/12 2/20/1 111/21/20
f 9/19/19 6/12/12 111/21/20
f 56/5/5 10/7/7 51/4/4
f 2/1/1 52/3/3 111/22/20
f 5/10/10 9/19/19 13/18/18
f 45/23/21 8/14/14 44/24/22
f 44/24/22 8/14/14 13/18/18
f 45/23/21 46/16/16 12/15/15
f 45/23/21 12/15/15 8/14/14
f 11/8/8 57/25/23 47/26/24
f 10/7/7 11/8/8 47/26/24
f 57/25/23 7/17/17 47/26/24
f 47/26/24 7/17/17 46/16/16
f 15/27/25 83/28/26 17/29/27
f 17/29/27 83/28/26 82/30/28
f 86/31/29 15/27/25 14/32/30
f 34/33/31 86/31/29 14/32/30
f 14/32/30 301/34/32 299/35/33
f 14/32/30 15/27/25 301/34/32
f 15/27/25 16/36/34 301/34/32
f 96/37/35 16/36/34 17/29/27
f 25/38/36 96/37/35 17/29/27
f 18/39/37 96/37/35 25/38/36
f 25/38/36 19/40/38 175/41/39
f 19/40/38 20/42/40 175/41/39
f 89/43/41 175/41/39 20/42/40
f 149/44/42 175/41/39 89/43/41
f 20/42/40 23/45/43 89/43/41
f 94/46/44 89/43/41 23/45/43
f 23/45/43 20/42/40 22/47/45
f 20/42/40 19/40/38 22/47/45
f 22/47/45 19/40/38 21/48/46
f 22/47/45 21/48/46 24/49/47
f 22/47/45 32/50/48 23/45/43
f 32/50/48 27/51/49 23/45/43
f 27/51/49 94/46/44 23/45/43
f 84/52/50 21/48/46 19/40/38
f 19/40/38 82/30/28 81/53/51
f 17/29/27 82/30/28 19/40/38
f 25/38/36 17/29/27 19/40/38
f 19/40/38 81/53/51 84/52/50
f 21/48/46 84/52/50 26/54/52
f 26/54/52 84/52/50 85/55/53
f 26/54/52 85/55/53 244/56/54
f 244/56/54 30/57/55 26/54/52
f 24/49/47 30/57/55 63/58/56
f 24/49/47 26/54/52 30/57/55
f 31/59/57 24/49/47 63/58/56
f 29/60/58 24/49/47 31/59/57
f 28/61/59 244/56/54 34/33/31
f 244/56/54 28/61/59 30/57/55
f 27/51/49 32/50/48 33/62/60
f 29/60/58 32/50/48 22/47/45
f 24/49/47 29/60/58 22/47/45
f 24/49/47 21/48/46 26/54/52
f 29/60/58 31/59/57 32/50/48
f 32/50/48 31/59/57 37/63/61
f 28/61/59 34/33/31 35/64/62
f 34/33/31 14/32/30 35/64/62
f 28/61/59 35/64/62 36/65/63
f 31/59/57 63/58/56 165/66/64
f 46/67/16 170/68/65 35/64/62
f 46/67/16 166/69/66 170/68/65
f 166/69/66 46/67/16 45/70/21
f 165/66/64 166/69/66 45/70/21
f 43/71/67 31/59/57 165/66/64
f 43/71/67 37/63/61 31/59/57
f 37/63/61 43/71/67 38/72/68
f 35/64/62 170/68/65 36/65/63
f 115/73/69 38/72/68 277/74/70
f 38/72/68 39/75/71 277/74/70
f 40/76/72 39/75/71 43/71/67
f 43/71/67 39/75/71 38/72/68
f 158/77/73 43/71/67 44/78/22
f 44/78/22 43/71/67 45/70/21
f 45/70/21 43/71/67 165/66/64
f 46/67/16 35/64/62 47/79/24
f 47/79/24 35/64/62 55/80/74
f 10/81/7 47/79/24 48/82/75
f 48/82/75 47/79/24 55/80/74
f 10/81/7 48/82/75 51/83/4
f 104/84/76 51/83/4 48/82/75
f 103/85/77 104/84/76 50/86/78
f 49/87/79 102/88/80 50/86/78
f 48/82/75 50/86/78 104/84/76
f 51/83/4 104/84/76 200/89/81
f 200/89/81 52/90/3 51/83/4
f 185/91/82 52/90/3 200/89/81
f 185/91/82 111/92/20 52/90/3
f 53/93/83 102/88/80 49/87/79
f 55/80/74 54/94/84 50/86/78
f 54/94/84 14/32/30 299/35/33
f 35/64/62 54/94/84 55/80/74
f 35/64/62 14/32/30 54/94/84
f 56/5/5 156/95/85 171/6/6
f 57/25/23 11/8/8 157/96/86
f 171/6/6 58/97/87 11/8/8
f 67/98/88 60/99/89 59/100/90
f 59/100/90 60/99/89 61/101/91
f 60/99/89 161/102/92 61/101/91
f 61/101/91 64/103/93 59/100/90
f 161/102/92 164/104/94 61/101/91
f 61/101/91 164/104/94 64/103/93
f 59/100/90 64/103/93 62/105/95
f 62/105/95 64/103/93 63/106/56
f 30/107/55 62/105/95 63/106/56
f 63/106/56 64/103/93 165/108/64
f 64/103/93 164/104/94 165/108/64
f 62/105/95 65/109/96 66/110/97
f 62/105/95 66/110/97 59/100/90
f 59/100/90 66/110/97 67/98/88
f 67/98/88 66/110/97 69/111/98
f 69/111/98 70/112/99 68/113/100
f 67/98/88 69/111/98 68/113/100
f 66/110/97 71/114/101 69/111/98
f 69/111/98 72/115/102 70/112/99
f 71/114/101 72/115/102 69/111/98
f 65/109/96 71/114/101 66/110/97
f 71/114/101 65/109/96 28/116/59
f 28/116/59 72/115/102 71/114/101
f 65/109/96 30/107/55 28/116/59
f 62/105/95 30/107/55 65/109/96
f 72/115/102 28/116/59 36/117/63
f 80/118/103 74/119/104 75/120/105
f 75/120/105 76/121/106 79/122/107
f 74/119/104 73/123/108 75/120/105
f 73/123/108 76/121/106 75/120/105
f 77/124/109 78/125/110 73/126/108
f 78/127/110 76/121/106 73/123/108
f 73/126/108 74/119/104 77/124/109
f 77/124/109 74/119/104 84/128/50
f 80/118/103 84/128/50 74/119/104
f 79/122/107 80/118/103 75/120/105
f 78/125/110 77/124/109 82/129/28
f 78/127/110 82/130/28 83/131/26
f 76/121/106 83/131/26 15/132/25
f 78/127/110 83/131/26 76/121/106
f 81/133/51 77/124/109 84/128/50
f 85/134/53 84/128/50 80/118/103
f 80/118/103 86/135/29 85/134/53
f 79/122/107 86/135/29 80/118/103
f 86/135/29 79/122/107 15/132/25
f 88/136/111 87/137/112 89/138/41
f 89/138/41 87/137/112 149/139/42
f 87/137/112 88/136/111 90/140/113
f 87/137/112 90/140/113 267/141/114
f 89/138/41 91/142/115 88/136/111
f 94/143/44 91/142/115 89/138/41
f 93/144/116 88/136/111 91/142/115
f 88/136/111 93/144/116 90/140/113
f 90/140/113 93/144/116 122/145/117
f 122/145/117 93/144/116 92/146/118
f 90/140/113 122/145/117 203/147/119
f 90/140/113 95/148/120 267/141/114
f 269/149/121 95/148/120 96/150/35
f 95/148/120 97/151/122 96/150/35
f 97/151/122 95/148/120 100/152/123
f 97/151/122 100/152/123 98/153/124
f 95/148/120 269/149/121 267/141/114
f 96/150/35 97/151/122 16/154/34
f 275/155/125 16/154/34 97/151/122
f 99/156/126 97/151/122 98/153/124
f 99/156/126 98/153/124 138/157/127
f 218/158/128 209/159/129 101/160/130
f 125/161/131 102/162/80 53/163/83
f 102/162/80 103/164/77 50/165/78
f 185/166/82 105/167/132 111/168/20
f 200/169/81 104/170/76 106/171/133
f 200/169/81 106/171/133 199/172/134
f 199/172/134 106/171/133 198/173/135
f 198/173/135 106/171/133 107/174/136
f 216/175/137 198/173/135 107/174/136
f 198/173/135 216/175/137 197/176/138
f 215/177/139 114/178/140 214/179/141
f 215/177/139 113/180/142 114/178/140
f 108/181/143 113/180/142 215/177/139
f 108/181/143 109/182/144 113/180/142
f 110/183/145 196/184/146 109/182/144
f 105/185/132 110/183/145 111/186/20
f 42/187/147 110/183/145 109/182/144
f 112/188/148 109/182/144 108/181/143
f 196/184/146 195/189/149 109/182/144
f 113/180/142 109/182/144 195/189/149
f 109/182/144 112/188/148 290/190/150
f 112/188/148 115/191/69 277/192/70
f 112/188/148 108/181/143 115/191/69
f 42/187/147 109/182/144 290/190/150
f 115/191/69 108/181/143 116/193/151
f 115/191/69 116/193/151 119/194/152
f 119/194/152 116/193/151 118/195/153
f 119/194/152 33/196/60 115/191/69
f 33/196/60 119/194/152 27/197/49
f 121/198/154 92/146/118 120/199/155
f 101/160/130 121/198/154 120/199/155
f 121/198/154 122/145/117 92/146/118
f 117/200/156 92/146/118 93/144/116
f 117/200/156 93/144/116 91/142/115
f 118/195/153 117/200/156 91/142/115
f 94/143/44 119/194/152 91/142/115
f 119/194/152 94/143/44 27/197/49
f 91/142/115 119/194/152 118/195/153
f 53/93/83 49/87/79 299/35/33
f 299/35/33 49/87/79 54/94/84
f 124/201/157 123/202/158 125/203/131
f 125/203/131 299/204/33 124/201/157
f 124/201/157 299/204/33 127/205/159
f 299/204/33 126/206/160 127/205/159
f 127/205/159 126/206/160 128/207/161
f 126/206/160 131/208/162 128/207/161
f 127/205/159 128/207/161 130/209/163
f 136/210/164 128/207/161 131/208/162
f 129/211/165 128/207/161 136/210/164
f 129/211/165 130/209/163 128/207/161
f 131/208/162 126/212/160 133/213/166
f 132/214/167 131/208/162 133/213/166
f 136/210/164 131/208/162 132/214/167
f 133/213/166 137/215/168 132/214/167
f 126/212/160 134/216/169 133/213/166
f 134/216/169 126/212/160 299/217/33
f 133/213/166 134/216/169 137/215/168
f 135/218/170 137/215/168 134/216/169
f 139/219/171 136/210/164 132/214/167
f 136/210/164 139/219/171 140/220/172
f 137/215/168 139/219/171 132/214/167
f 135/218/170 141/221/173 137/215/168
f 138/222/127 141/221/173 135/218/170
f 139/219/171 141/221/173 140/220/172
f 137/215/168 141/221/173 139/219/171
f 141/223/173 142/224/174 140/220/172
f 141/223/173 143/225/175 142/224/174
f 143/225/175 144/226/176 142/224/174
f 129/211/165 136/210/164 140/220/172
f 142/224/174 129/211/165 140/220/172
f 142/224/174 130/209/163 129/211/165
f 141/223/173 138/227/127 143/225/175
f 138/227/127 123/202/158 143/225/175
f 125/203/131 123/202/158 138/227/127
f 123/202/158 144/226/176 143/225/175
f 127/228/159 130/229/177 146/230/178
f 146/230/178 130/229/177 148/231/179
f 145/232/180 146/230/178 148/231/179
f 145/232/180 127/228/159 146/230/178
f 124/233/157 127/228/159 145/232/180
f 124/233/157 145/232/180 123/234/158
f 147/235/181 123/234/158 145/232/180
f 142/236/174 148/231/179 130/229/177
f 144/237/176 148/231/179 142/236/174
f 123/234/158 147/235/181 144/237/176
f 148/231/179 144/237/176 147/235/181
f 147/235/181 145/232/180 148/231/179
f 173/238/182 174/239/183 150/240/184
f 18/241/37 151/242/185 174/239/183
f 151/242/185 150/240/184 174/239/183
f 150/240/184 149/243/42 173/238/182
f 151/242/185 149/243/42 150/240/184
f 153/244/186 6/245/12 152/246/9
f 154/247/187 152/246/9 4/248/11
f 3/249/13 154/247/187 4/248/11
f 6/245/12 153/244/186 2/250/1
f 154/247/187 3/249/13 12/251/15
f 154/247/187 12/251/15 57/252/23
f 57/252/23 12/251/15 7/253/17
f 153/244/186 152/246/9 57/252/23
f 57/252/23 152/246/9 154/247/187
f 155/254/188 153/244/186 58/255/87
f 155/254/188 58/255/87 156/256/85
f 2/250/1 153/244/186 1/257/2
f 1/257/2 153/244/186 155/254/188
f 57/252/23 157/258/86 153/244/186
f 153/244/186 157/258/86 58/255/87
f 155/254/188 156/256/85 56/259/5
f 157/258/86 11/260/8 58/255/87
f 158/77/73 13/261/18 42/262/147
f 42/262/147 41/263/189 158/77/73
f 42/262/147 13/261/18 110/264/145
f 9/265/19 110/264/145 13/261/18
f 111/266/20 110/264/145 9/265/19
f 158/77/73 44/78/22 13/261/18
f 158/77/73 41/263/189 40/76/72
f 40/76/72 43/71/67 158/77/73
f 159/267/190 160/268/191 162/269/192
f 182/270/193 160/268/191 159/267/190
f 182/270/193 159/267/190 161/271/92
f 161/271/92 159/267/190 164/272/94
f 159/267/190 162/269/192 164/272/94
f 162/269/192 160/268/191 163/273/194
f 162/269/192 163/273/194 166/274/66
f 164/272/94 162/269/192 166/274/66
f 164/272/94 166/274/66 165/275/64
f 167/276/195 169/277/196 163/273/194
f 160/268/191 167/276/195 163/273/194
f 70/278/99 167/276/195 168/279/197
f 68/280/100 70/278/99 168/279/197
f 167/276/195 160/268/191 168/279/197
f 168/279/197 160/268/191 182/270/193
f 72/281/102 167/276/195 70/278/99
f 72/281/102 169/277/196 167/276/195
f 169/277/196 72/281/102 170/282/65
f 72/281/102 36/283/63 170/282/65
f 169/277/196 166/274/66 163/273/194
f 170/282/65 166/274/66 169/277/196
f 156/284/85 58/285/87 172/286/198
f 58/285/87 171/287/6 172/286/198
f 156/284/85 172/286/198 171/287/6
f 266/288/199 174/289/183 173/290/182
f 18/291/37 174/289/183 266/288/199
f 266/288/199 173/290/182 149/292/42
f 269/149/121 18/293/37 266/294/199
f 18/293/37 269/149/121 96/150/35
f 175/295/39 176/296/200 179/297/201
f 177/298/202 175/295/39 179/297/201
f 25/299/36 175/295/39 177/298/202
f 151/300/185 176/296/200 149/301/42
f 149/301/42 176/296/200 175/295/39
f 18/302/37 177/303/202 178/304/203
f 178/304/203 179/305/201 176/306/200
f 178/304/203 177/303/202 179/305/201
f 151/307/185 18/302/37 178/304/203
f 176/306/200 151/307/185 178/304/203
f 18/302/37 25/308/36 177/303/202
f 56/309/5 1/310/2 155/311/188
f 32/50/48 37/63/61 33/62/60
f 33/62/60 37/63/61 38/72/68
f 38/72/68 115/73/69 33/62/60
f 15/27/25 17/29/27 16/36/34
f 54/94/84 49/87/79 50/86/78
f 55/80/74 50/86/78 48/82/75
f 77/124/109 81/133/51 82/129/28
f 76/121/106 15/132/25 79/122/107
f 103/164/77 180/312/204 107/174/136
f 106/171/133 103/164/77 107/174/136
f 104/170/76 103/164/77 106/171/133
f 180/312/204 103/164/77 102/162/80
f 180/312/204 102/162/80 138/157/127
f 138/157/127 102/162/80 125/161/131
f 67/98/88 181/313/205 60/99/89
f 68/113/100 181/313/205 67/98/88
f 161/271/92 60/314/89 182/270/193
f 60/314/89 181/315/205 182/270/193
f 182/270/193 181/315/205 168/279/197
f 168/279/197 181/315/205 68/280/100
f 53/316/83 299/317/33 125/318/131
f 87/137/112 266/319/199 149/139/42
f 184/320/206 185/321/82 272/322/207
f 272/322/207 185/321/82 200/323/81
f 272/322/207 200/323/81 183/324/208
f 186/325/209 183/324/208 199/326/134
f 199/326/134 220/327/210 186/325/209
f 248/328/211 188/329/212 189/330/213
f 190/331/214 191/332/215 247/333/216
f 191/332/215 192/334/217 247/333/216
f 188/329/212 194/335/218 189/330/213
f 187/336/219 197/337/138 188/329/212
f 194/335/218 195/338/149 189/330/213
f 189/330/213 195/338/149 190/331/214
f 195/338/149 191/332/215 190/331/214
f 191/332/215 196/339/146 192/334/217
f 192/334/217 105/340/132 184/341/206
f 192/334/217 196/339/146 105/340/132
f 183/324/208 200/323/81 199/326/134
f 184/320/206 105/342/132 185/321/82
f 195/338/149 196/339/146 191/332/215
f 195/338/149 194/335/218 113/343/142
f 113/343/142 194/335/218 114/344/140
f 194/335/218 188/329/212 114/344/140
f 114/344/140 188/329/212 197/337/138
f 220/327/210 198/345/135 193/346/220
f 220/327/210 199/326/134 198/345/135
f 193/346/220 198/345/135 187/336/219
f 187/336/219 198/345/135 197/337/138
f 206/347/221 204/348/222 203/349/119
f 100/350/123 207/351/223 201/352/224
f 100/350/123 208/353/225 237/354/226
f 237/354/226 208/353/225 238/355/227
f 208/353/225 205/356/228 238/355/227
f 240/357/229 201/352/224 207/351/223
f 202/358/230 201/352/224 240/357/229
f 202/358/230 240/357/229 203/349/119
f 201/352/224 213/359/231 209/360/129
f 213/359/231 201/352/224 210/361/232
f 202/358/230 210/361/232 201/352/224
f 202/358/230 101/362/130 210/361/232
f 212/363/233 211/364/234 101/362/130
f 213/359/231 211/364/234 212/365/233
f 210/361/232 101/362/130 211/364/234
f 213/359/231 210/361/232 211/364/234
f 212/365/233 209/360/129 213/359/231
f 209/360/129 212/365/233 101/366/130
f 215/177/139 214/179/141 217/367/235
f 116/193/151 215/177/139 217/367/235
f 108/181/143 215/177/139 116/193/151
f 255/368/236 214/179/141 114/178/140
f 114/178/140 197/176/138 255/368/236
f 255/368/236 197/176/138 261/369/237
f 197/176/138 216/175/137 261/369/237
f 216/175/137 234/370/238 261/369/237
f 218/158/128 234/370/238 216/175/137
f 209/159/129 218/158/128 216/175/137
f 209/159/129 216/175/137 98/153/124
f 117/200/156 118/195/153 217/367/235
f 217/367/235 118/195/153 116/193/151
f 214/179/141 229/371/239 217/367/235
f 138/157/127 98/153/124 180/312/204
f 180/312/204 216/175/137 107/174/136
f 98/153/124 216/175/137 180/312/204
f 120/199/155 218/158/128 101/160/130
f 92/146/118 229/371/239 120/199/155
f 229/371/239 92/146/118 217/367/235
f 92/146/118 117/200/156 217/367/235
f 101/160/130 202/372/230 121/198/154
f 98/153/124 201/373/224 209/159/129
f 98/153/124 100/152/123 201/373/224
f 95/148/120 208/374/225 100/152/123
f 208/374/225 95/148/120 205/375/228
f 90/140/113 205/375/228 95/148/120
f 204/376/222 205/375/228 90/140/113
f 203/147/119 204/376/222 90/140/113
f 121/198/154 203/147/119 122/145/117
f 202/372/230 203/147/119 121/198/154
f 219/377/240 183/324/208 186/325/209
f 193/346/220 273/378/241 220/327/210
f 220/327/210 262/379/242 186/325/209
f 221/380/243 222/381/244 224/382/245
f 224/382/245 226/383/246 223/384/247
f 221/380/243 224/382/245 223/384/247
f 222/381/244 227/385/248 224/382/245
f 224/382/245 228/386/249 226/383/246
f 227/385/248 228/386/249 224/382/245
f 225/387/250 227/385/248 222/381/244
f 227/385/248 225/387/250 229/388/239
f 225/387/250 120/389/155 229/388/239
f 227/385/248 229/388/239 214/390/141
f 227/385/248 214/390/141 228/386/249
f 231/391/251 230/392/252 225/387/250
f 222/381/244 231/391/251 225/387/250
f 221/380/243 232/393/253 231/391/251
f 221/380/243 231/391/251 222/381/244
f 232/393/253 233/394/254 231/391/251
f 258/395/255 259/396/256 232/393/253
f 232/393/253 259/396/256 233/394/254
f 231/391/251 233/394/254 230/392/252
f 230/392/252 233/394/254 218/397/128
f 233/394/254 259/396/256 218/397/128
f 230/392/252 218/397/128 120/389/155
f 225/387/250 230/392/252 120/389/155
f 218/397/128 259/396/256 234/398/238
f 240/357/229 235/399/257 236/400/258
f 207/351/223 237/354/226 235/399/257
f 235/399/257 239/401/259 236/400/258
f 239/401/259 235/399/257 237/354/226
f 239/401/259 238/402/227 206/347/221
f 239/401/259 237/354/226 238/355/227
f 206/347/221 236/400/258 239/401/259
f 203/349/119 236/400/258 206/347/221
f 203/349/119 240/357/229 236/400/258
f 235/399/257 240/357/229 207/351/223
f 206/347/221 238/402/227 205/403/228
f 205/403/228 204/348/222 206/347/221
f 207/351/223 100/350/123 237/354/226
f 241/404/260 242/405/261 243/406/262
f 241/404/260 243/406/262 245/407/263
f 241/404/260 245/408/263 244/409/54
f 241/404/260 244/409/54 242/405/261
f 86/135/29 34/410/31 243/406/262
f 242/405/261 86/135/29 243/406/262
f 85/134/53 86/135/29 242/405/261
f 242/405/261 244/409/54 85/134/53
f 245/407/263 243/406/262 34/410/31
f 34/410/31 244/411/54 245/407/263
f 249/412/264 246/413/265 247/414/216
f 190/415/214 247/414/216 246/413/265
f 246/413/265 189/416/213 190/415/214
f 246/413/265 248/417/211 189/416/213
f 247/414/216 192/418/217 249/412/264
f 249/412/264 192/418/217 184/419/206
f 193/420/220 188/421/212 248/417/211
f 187/422/219 188/421/212 193/420/220
f 193/420/220 246/413/265 249/412/264
f 193/420/220 248/417/211 246/413/265
f 249/412/264 271/423/266 262/424/242
f 271/423/266 219/425/240 262/424/242
f 184/419/206 272/426/207 249/412/264
f 249/412/264 272/426/207 271/423/266
f 262/424/242 250/427/267 249/412/264
f 249/412/264 250/427/267 193/420/220
f 193/420/220 250/427/267 273/428/241
f 271/423/266 183/429/208 219/425/240
f 262/424/242 220/430/210 250/427/267
f 254/431/268 251/432/269 252/433/270
f 252/433/270 251/432/269 253/434/271
f 223/435/247 226/436/246 252/433/270
f 228/437/249 252/433/270 226/436/246
f 228/437/249 254/431/268 252/433/270
f 251/432/269 254/431/268 256/438/272
f 254/431/268 255/439/236 256/438/272
f 254/431/268 228/437/249 255/439/236
f 228/437/249 214/440/141 255/439/236
f 257/441/273 256/438/272 260/442/274
f 257/441/273 251/432/269 256/438/272
f 253/434/271 257/441/273 258/443/255
f 253/434/271 251/432/269 257/441/273
f 258/443/255 257/441/273 259/444/256
f 257/441/273 260/442/274 259/444/256
f 259/444/256 260/442/274 261/445/237
f 259/444/256 261/445/237 234/446/238
f 256/438/272 255/439/236 260/442/274
f 260/442/274 255/439/236 261/445/237
f 219/447/240 263/448/275 262/449/242
f 263/448/275 186/450/209 262/449/242
f 186/450/209 263/448/275 219/447/240
f 264/451/276 265/452/277 87/453/112
f 87/453/112 270/454/278 264/451/276
f 267/455/114 270/454/278 87/453/112
f 87/453/112 265/452/277 266/456/199
f 269/457/121 268/458/279 270/459/278
f 265/460/277 264/461/276 268/458/279
f 264/461/276 270/459/278 268/458/279
f 266/462/199 268/458/279 269/457/121
f 266/462/199 265/460/277 268/458/279
f 267/463/114 269/457/121 270/459/278
f 271/464/266 272/465/207 183/466/208
f 250/467/267 220/468/210 273/469/241
f 223/384/247 274/470/280 221/380/243
f 221/380/243 274/470/280 232/393/253
f 232/393/253 274/470/280 258/395/255
f 253/434/271 223/435/247 252/433/270
f 253/434/271 274/471/280 223/435/247
f 258/443/255 274/471/280 253/434/271
f 105/185/132 196/184/146 110/183/145
f 278/478/281 40/479/72 41/480/189
f 276/481/282 41/480/189 42/482/147
f 287/483/283 39/484/71 40/479/72
f 40/479/72 278/478/281 287/483/283
f 288/485/284 277/486/70 39/484/71
f 41/480/189 276/481/282 278/478/281
f 280/487/285 276/481/282 42/482/147
f 39/484/71 287/483/283 288/485/284
f 280/487/285 279/488/286 276/481/282
f 285/489/287 279/488/286 281/490/288
f 286/491/289 281/490/288 282/492/290
f 282/492/290 283/493/291 284/494/292
f 285/489/287 281/490/288 286/491/289
f 276/481/282 279/488/286 278/478/281
f 278/478/281 279/488/286 285/489/287
f 286/491/289 282/492/290 284/494/292
f 284/494/292 288/485/284 287/483/283
f 284/494/292 287/483/283 286/491/289
f 278/478/281 285/489/287 286/491/289
f 278/478/281 286/491/289 287/483/283
f 288/485/284 284/494/292 283/493/291
f 283/493/291 277/486/70 288/485/284
f 290/495/150 112/496/148 289/497/293
f 292/498/294 289/497/293 112/496/148
f 297/499/295 290/495/150 289/497/293
f 42/500/147 290/495/150 297/499/295
f 280/501/285 42/500/147 297/499/295
f 112/496/148 291/502/296 292/498/294
f 291/502/296 277/503/70 283/504/291
f 289/497/293 292/498/294 293/505/297
f 289/497/293 293/505/297 294/506/298
f 295/507/299 289/497/293 294/506/298
f 297/499/295 289/497/293 295/507/299
f 294/506/298 281/508/288 295/507/299
f 295/507/299 281/508/288 279/509/286
f 294/506/298 296/510/300 281/508/288
f 282/511/290 296/510/300 283/504/291
f 291/502/296 283/504/291 296/510/300
f 292/498/294 291/502/296 296/510/300
f 293/505/297 296/510/300 294/506/298
f 281/508/288 296/510/300 282/511/290
f 296/510/300 293/505/297 292/498/294
f 280/501/285 295/507/299 279/509/286
f 295/507/299 280/501/285 297/499/295
f 277/503/70 291/502/296 112/496/148
f 319/512/301 298/513/302 302/514/303
f 298/513/302 308/515/304 311/516/305
f 300/517/306 298/513/302 311/516/305
f 300/517/306 299/518/33 301/519/32
f 298/513/302 319/512/301 308/515/304
f 303/520/307 300/517/306 301/519/32
f 301/519/32 275/521/125 303/520/307
f 303/520/307 275/521/125 306/522/308
f 303/520/307 306/522/308 302/514/303
f 298/513/302 303/520/307 302/514/303
f 303/520/307 298/513/302 300/517/306
f 275/521/125 304/523/309 306/522/308
f 306/522/308 304/523/309 305/524/310
f 99/525/126 304/523/309 275/521/125
f 304/523/309 309/526/311 305/524/310
f 304/523/309 99/525/126 307/527/312
f 309/526/311 307/527/312 310/528/313
f 310/528/313 308/515/304 309/526/311
f 309/526/311 308/515/304 319/512/301
f 305/524/310 309/526/311 319/512/301
f 309/526/311 304/523/309 307/527/312
f 99/525/126 138/529/127 307/527/312
f 316/530/314 310/528/313 138/529/127
f 310/528/313 307/527/312 138/529/127
f 311/516/305 308/515/304 310/528/313
f 313/531/315 311/516/305 312/532/316
f 311/516/305 313/531/315 300/517/306
f 313/531/315 299/518/33 300/517/306
f 314/533/317 313/531/315 312/532/316
f 316/530/314 315/534/318 314/533/317
f 135/535/170 315/534/318 316/530/314
f 134/536/169 315/534/318 135/535/170
f 299/518/33 313/531/315 134/536/169
f 134/536/169 313/531/315 315/534/318
f 315/534/318 313/531/315 314/533/317
f 314/533/317 310/528/313 316/530/314
f 312/532/316 310/528/313 314/533/317
f 310/528/313 312/532/316 311/516/305
f 135/535/170 316/530/314 138/529/127
f 318/537/319 317/538/320 306/539/308
f 302/540/303 306/539/308 317/538/320
f 317/538/320 319/541/301 302/540/303
f 305/542/310 319/541/301 317/538/320
f 317/538/320 318/537/319 305/542/310
f 318/537/319 306/539/308 305/542/310
usemtl Eye
f 301/472/32 16/473/34 275/474/125
f 275/475/125 97/476/122 99/477/126
